<svg id="Capa_1" enable-background="new 0 0 512 512" height="512" viewBox="0 0 512 512" width="512" xmlns="http://www.w3.org/2000/svg"><g><g><path d="m474.94 287.626h-7.269c-14.911 0-26.998-12.087-26.998-26.998v-49.843c0-14.911 12.087-26.998 26.998-26.998h7.269c14.911 0 26.998 12.087 26.998 26.998v49.843c0 14.91-12.088 26.998-26.998 26.998z" fill="#96b4eb"/><path d="m44.33 287.626h-7.269c-14.911 0-26.998-12.087-26.998-26.998v-49.843c0-14.911 12.087-26.998 26.998-26.998h7.269c14.911 0 26.998 12.087 26.998 26.998v49.843c0 14.91-12.088 26.998-26.998 26.998z" fill="#96b4eb"/><path d="m288.665 52.007h-65.329c-98.249 0-177.897 79.646-177.897 177.897v11.605c0 71.546 42.241 133.216 103.139 161.46-11.004 18.589-17.327 40.277-17.327 63.446v33.725h249.498v-33.725c0-23.169-6.323-44.856-17.327-63.447 60.898-28.244 103.139-89.913 103.139-161.459v-11.605c0-98.251-79.647-177.897-177.896-177.897z" fill="#fff"/><path d="m288.665 49.952h-31.492c85.528 0 154.863 69.334 154.863 154.863v10.103c0 85.529-69.334 154.863-154.863 154.863h-56.87c-83.428 0-151.436-65.974-154.726-148.595-.081 2.212-.137 4.431-.137 6.664v11.605c0 98.249 79.647 177.897 177.897 177.897h65.329c2.946 0 5.874-.076 8.784-.217 5.294 10.334 8.318 22.219 8.318 34.876v7.219c0 11.238-9.11 20.347-20.348 20.347h-112.692v20.564h166.544v-31.865c0-20.433-7.37-39.138-19.583-53.626 83.458-14.678 146.872-87.529 146.872-175.195v-11.605c0-98.252-79.647-177.898-177.896-177.898z" fill="#e1bdfc"/><path d="m277.402 356.064h-42.803c-64.372 0-116.556-52.184-116.556-116.556v-7.604c0-64.372 52.184-116.556 116.556-116.556h42.803c64.372 0 116.556 52.184 116.556 116.556v7.604c-.001 64.372-52.184 116.556-116.556 116.556z" fill="#c1e5ef"/><path d="m277.402 115.349h-23.376c54.929 0 99.458 44.529 99.458 99.458v6.489c0 54.93-44.529 99.458-99.458 99.458h-36.524c-53.203 0-96.648-41.774-99.327-94.311-.084 1.811-.131 3.63-.131 5.462v7.604c0 64.371 52.184 116.556 116.556 116.556h42.803c64.372 0 116.556-52.184 116.556-116.556v-7.604c-.002-64.373-52.185-116.556-116.557-116.556z" fill="#a6aaed"/><path d="m362.229 433.148h-218.592c-10.167 0-18.408-8.242-18.408-18.408 0-10.167 8.242-18.408 18.408-18.408h218.592c10.167 0 18.408 8.242 18.408 18.408 0 10.167-8.241 18.408-18.408 18.408z" fill="#96b4eb"/><g fill="#c1e5ef"><path d="m273.017 489.267h-34.034c-6.266 0-11.345-5.079-11.345-11.345v-11.345c0-6.266 5.079-11.345 11.345-11.345h34.034c6.266 0 11.345 5.079 11.345 11.345v11.345c0 6.266-5.079 11.345-11.345 11.345z"/><path d="m42.323 4.547 8.266 23.242c.354.995 1.055 1.784 1.939 2.182l20.65 9.304c2.917 1.314 2.917 5.963 0 7.277l-20.65 9.304c-.884.398-1.585 1.187-1.939 2.182l-8.266 23.242c-1.168 3.284-5.298 3.284-6.465 0l-8.266-23.242c-.354-.995-1.055-1.784-1.939-2.182l-20.65-9.304c-2.917-1.314-2.917-5.963 0-7.277l20.65-9.304c.884-.398 1.585-1.187 1.939-2.182l8.266-23.242c1.168-3.284 5.297-3.284 6.465 0z"/><path d="m455.759 1.95 6.132 17.241c.262.738.782 1.323 1.438 1.619l15.318 6.901c2.164.975 2.164 4.423 0 5.398l-15.318 6.901c-.656.295-1.176.88-1.438 1.619l-6.132 17.241c-.866 2.436-3.93 2.436-4.796 0l-6.131-17.241c-.263-.738-.782-1.323-1.438-1.619l-15.318-6.901c-2.164-.975-2.164-4.423 0-5.398l15.318-6.901c.656-.296 1.176-.88 1.438-1.619l6.131-17.241c.867-2.436 3.93-2.436 4.796 0z"/></g><ellipse cx="50.148" cy="416.616" fill="#96b4eb" rx="18.049" ry="18.049" transform="matrix(.924 -.383 .383 .924 -155.615 50.904)"/><circle cx="479.857" cy="85.969" fill="#96b4eb" r="7.786"/></g><g><g fill="#3c122c"><path d="m277.402 366.127h-42.803c-69.818 0-126.618-56.801-126.618-126.618v-7.604c0-69.818 56.801-126.618 126.618-126.618h42.803c69.818 0 126.618 56.801 126.618 126.618v7.604c0 69.817-56.801 126.618-126.618 126.618zm-42.803-240.716c-58.72 0-106.493 47.773-106.493 106.493v7.604c0 58.72 47.773 106.493 106.493 106.493h42.803c58.72 0 106.493-47.773 106.493-106.493v-7.604c0-58.72-47.773-106.493-106.493-106.493z"/><path d="m272.457 323.304c-.011 0-.021 0-.031 0-3.335-.001-6.037-2.705-6.036-6.04.001-3.334 2.704-6.036 6.038-6.036h.002.027c9.275 0 18.718-1.817 27.315-5.256 3.097-1.236 6.61.269 7.849 3.364 1.238 3.096-.268 6.609-3.364 7.849-10.009 4.004-21.005 6.119-31.8 6.119z"/><path d="m325.773 302.708c-1.632 0-3.258-.657-4.449-1.955-2.255-2.456-2.092-6.275.365-8.531 3.588-3.294 6.882-6.991 9.789-10.987 10.326-14.191 15.455-31.349 14.441-48.314-.2-3.329 2.338-6.189 5.666-6.387 3.301-.193 6.189 2.337 6.387 5.666 1.181 19.754-4.761 39.691-16.73 56.141-3.378 4.643-7.21 8.942-11.387 12.778-1.16 1.064-2.623 1.589-4.082 1.589z"/><path d="m474.939 173.724h-6.894c-23.942-76.285-95.301-131.78-179.381-131.78h-65.329c-84.08 0-155.439 55.495-179.381 131.779h-6.894c-20.435.001-37.06 16.626-37.06 37.062v49.843c0 20.436 16.625 37.061 37.061 37.061h6.898c13.519 43.062 42.151 79.491 79.651 103.06-2.781 3.967-4.419 8.791-4.419 13.992 0 6.453 2.518 12.326 6.617 16.7-3.002 11.159-4.619 22.881-4.619 34.976v33.725c0 5.557 4.506 10.063 10.063 10.063s10.063-4.506 10.063-10.063v-33.725c0-9.382 1.15-18.497 3.286-27.229h26.852c-3.073 9.02-4.761 18.673-4.761 28.72v36.053c0 3.334 2.703 6.038 6.038 6.038 3.334 0 6.038-2.703 6.038-6.038v-36.053c0-10.152 2.003-19.833 5.581-28.72h65.615v10.009h-10.98c-9.585 0-17.383 7.797-17.383 17.383v11.345c0 9.584 7.798 17.382 17.383 17.382h10.98v10.535c0 3.334 2.703 6.038 6.038 6.038s6.038-2.703 6.038-6.038v-10.535h10.979c9.585 0 17.383-7.798 17.383-17.382v-11.345c0-9.585-7.798-17.383-17.383-17.383h-10.979v-10.009h65.616c3.578 8.886 5.581 18.568 5.581 28.72v36.053c0 3.334 2.703 6.038 6.038 6.038 3.334 0 6.038-2.703 6.038-6.038v-36.053c0-10.047-1.688-19.7-4.761-28.72h21.68c1.728 0 3.413-.183 5.041-.526 2.223 8.891 3.417 18.185 3.417 27.755v33.725c0 5.557 4.506 10.063 10.063 10.063s10.063-4.506 10.063-10.063v-33.725c0-14.388-2.276-28.251-6.473-41.26 1.496-3.162 2.336-6.692 2.336-10.415 0-4.063-1.002-7.895-2.764-11.27 39.695-23.434 70.085-61.019 84.136-105.782h6.893c20.436 0 37.061-16.625 37.061-37.061v-49.843c-.005-20.437-16.63-37.062-37.066-37.062zm-196.615 292.853v11.345c0 2.926-2.381 5.306-5.307 5.306h-34.034c-2.926 0-5.307-2.38-5.307-5.306v-11.345c0-2.926 2.381-5.308 5.307-5.308h34.034c2.927.001 5.307 2.382 5.307 5.308zm-241.263-189.014c-9.338 0-16.935-7.597-16.935-16.935v-49.843c0-9.338 7.597-16.936 16.935-16.936h1.799c-2.277 11.673-3.484 23.725-3.484 36.055v11.605c0 12.331 1.214 24.38 3.492 36.054zm106.576 149.548c-6.822 0-12.371-5.549-12.371-12.371s5.549-12.371 12.371-12.371h218.591c6.822 0 12.371 5.549 12.371 12.371s-5.549 12.371-12.371 12.371zm312.861-185.602c0 64.768-36.886 121.071-90.747 149.042-1.151-.167-2.326-.258-3.523-.258h-216.47c-53.594-28.057-90.257-84.213-90.257-148.785v-11.605c0-92.544 75.29-167.834 167.834-167.834h65.329c92.544 0 167.834 75.29 167.834 167.834zm35.377 19.118c0 9.338-7.597 16.935-16.935 16.935h-1.81c2.278-11.674 3.494-23.723 3.494-36.054v-11.605c0-12.33-1.207-24.381-3.484-36.055h1.799c9.338 0 16.935 7.597 16.935 16.936v49.843z"/></g><path d="m203.286 171.538c-3.689 0-7.241-2.036-9.005-5.559-2.488-4.969-.477-11.015 4.492-13.503 2.453-1.228 4.995-2.335 7.559-3.29 5.206-1.939 11.002.708 12.943 5.915s-.708 11.002-5.915 12.943c-1.891.704-3.767 1.521-5.576 2.427-1.447.724-2.984 1.067-4.498 1.067z" fill="#fff"/><path d="m160.42 243.134c-.091 0-.184-.001-.275-.004-5.556-.149-9.938-4.774-9.788-10.329.535-19.911 7.33-39.603 19.131-55.45 3.32-4.457 9.623-5.38 14.081-2.061 4.458 3.32 5.38 9.623 2.061 14.081-9.347 12.552-14.729 28.167-15.155 43.97-.148 5.465-4.623 9.793-10.055 9.793z" fill="#fff"/></g></g></svg>